# xmcd CD database file
#
# Track frame offsets:
#	150
#	17601
#	36800
#	52143
#	71431
#	86281
#	104201
#	128265
#	145086
#	161174
#
# Disc length: 2483 seconds
#
# Revision: 0
# Processed by: cddbd v1.5.2PL0 Copyright (c) Steve Scherf et al.
# Submitted via: CDex 1.70beta2
#
DISCID=8109b10a
DTITLE=Andrea Marr - Little Sister Got Soul
DYEAR=1900
DGENRE=Blues
TTITLE0=Soulville
TTITLE1=Steam Up The Windows
TTITLE2=I Prefer You
TTITLE3=Don't Touch What You Can't Afford
TTITLE4=Superwoman
TTITLE5=Taught Me To Love
TTITLE6=If I Leave This World Tomorrow
TTITLE7=Real Good Man
TTITLE8=What's Wrong With You
TTITLE9=Baby Got Me Crazy
EXTD=
EXTT0=
EXTT1=
EXTT2=
EXTT3=
EXTT4=
EXTT5=
EXTT6=
EXTT7=
EXTT8=
EXTT9=
PLAYORDER=
